<svg width="1200" height="630" viewBox="0 0 1200 630" fill="none" xmlns="http://www.w3.org/2000/svg">
  <rect width="1200" height="630" rx="36" fill="#07111A"/>
  <rect width="1200" height="630" rx="36" fill="url(#bg)"/>
  <rect x="48" y="48" width="1104" height="534" rx="28" fill="url(#panel)" stroke="rgba(255,255,255,0.14)"/>
  <circle cx="958" cy="174" r="162" fill="url(#glowA)" opacity="0.85"/>
  <circle cx="254" cy="548" r="186" fill="url(#glowB)" opacity="0.65"/>
  <g opacity="0.18">
    <path d="M48 164H1152" stroke="white"/>
    <path d="M48 280H1152" stroke="white"/>
    <path d="M48 396H1152" stroke="white"/>
    <path d="M48 512H1152" stroke="white"/>
    <path d="M204 48V582" stroke="white"/>
    <path d="M412 48V582" stroke="white"/>
    <path d="M620 48V582" stroke="white"/>
    <path d="M828 48V582" stroke="white"/>
    <path d="M1036 48V582" stroke="white"/>
  </g>
  <rect x="104" y="104" width="112" height="112" rx="30" fill="url(#brand)"/>
  <path d="M136 160L160 134H185L159 160L186 186H161L136 160Z" fill="#07111A"/>
  <text x="256" y="150" fill="#9BC7DB" font-family="'Plus Jakarta Sans', Arial, sans-serif" font-size="28" font-weight="700" letter-spacing="0.16em">NEURAL ANGULAR</text>
  <text x="104" y="272" fill="#F5F8FB" font-family="'Plus Jakarta Sans', Arial, sans-serif" font-size="68" font-weight="800">Angular UI that already</text>
  <text x="104" y="348" fill="#F5F8FB" font-family="'Plus Jakarta Sans', Arial, sans-serif" font-size="68" font-weight="800">looks production-ready.</text>
  <text x="104" y="414" fill="#B7C8D4" font-family="'Plus Jakarta Sans', Arial, sans-serif" font-size="28" font-weight="500">Dark-mode ready components, token-driven styling, Storybook docs, and npm distribution.</text>
  <rect x="104" y="470" width="366" height="70" rx="22" fill="#0F1B26" stroke="rgba(255,255,255,0.14)"/>
  <text x="136" y="514" fill="#FFD280" font-family="'JetBrains Mono', monospace" font-size="24" font-weight="600">pnpm add @neuralangular/angular-ui</text>
  <rect x="812" y="408" width="258" height="132" rx="24" fill="rgba(7,17,26,0.68)" stroke="rgba(255,255,255,0.12)"/>
  <text x="846" y="452" fill="#A6D8D1" font-family="'Plus Jakarta Sans', Arial, sans-serif" font-size="22" font-weight="700">docs.materialangular.oroyajs.com</text>
  <text x="846" y="492" fill="#C2D1DA" font-family="'Plus Jakarta Sans', Arial, sans-serif" font-size="18" font-weight="500">Live docs, component states,</text>
  <text x="846" y="518" fill="#C2D1DA" font-family="'Plus Jakarta Sans', Arial, sans-serif" font-size="18" font-weight="500">and design-system references.</text>
  <defs>
    <linearGradient id="bg" x1="64" y1="48" x2="1118" y2="592" gradientUnits="userSpaceOnUse">
      <stop stop-color="#0A1621"/>
      <stop offset="0.5" stop-color="#09131C"/>
      <stop offset="1" stop-color="#050C12"/>
    </linearGradient>
    <linearGradient id="panel" x1="48" y1="48" x2="1152" y2="582" gradientUnits="userSpaceOnUse">
      <stop stop-color="rgba(20,33,46,0.92)"/>
      <stop offset="1" stop-color="rgba(8,16,24,0.92)"/>
    </linearGradient>
    <radialGradient id="glowA" cx="0" cy="0" r="1" gradientUnits="userSpaceOnUse" gradientTransform="translate(958 174) rotate(90) scale(162)">
      <stop stop-color="#71E2D5"/>
      <stop offset="1" stop-color="#71E2D5" stop-opacity="0"/>
    </radialGradient>
    <radialGradient id="glowB" cx="0" cy="0" r="1" gradientUnits="userSpaceOnUse" gradientTransform="translate(254 548) rotate(90) scale(186)">
      <stop stop-color="#F7A35C"/>
      <stop offset="1" stop-color="#F7A35C" stop-opacity="0"/>
    </radialGradient>
    <linearGradient id="brand" x1="104" y1="104" x2="216" y2="216" gradientUnits="userSpaceOnUse">
      <stop stop-color="#FFD280"/>
      <stop offset="1" stop-color="#71E2D5"/>
    </linearGradient>
  </defs>
</svg>
